<svg width="33" height="33" viewBox="0 0 33 33" fill="none" xmlns="http://www.w3.org/2000/svg">
<circle cx="16.5" cy="16.5" r="16.5" fill="white"/>
<path d="M26 23.5736C26.4589 24.2289 26.9285 23.7373 27.1059 23.4096L26 23.5736Z" fill="#EF8354" stroke="#EF8354" stroke-linejoin="round"/>
<path d="M6.5 23C22.1 16.6 28.5 18.8333 29.5 21.5C29 25 13.5 23.3333 6.5 23Z" fill="#6CBBB4" stroke="#6CBBB4" stroke-linejoin="round"/>
<path d="M25.5 19.5C26.5 19.8333 28.6 20.7 29 21.5L28.7881 21.553L25 22.5V20L25.5 19.5Z" fill="#EF8354" stroke="#EF8354" stroke-linejoin="round"/>
<path d="M29 21.5L27.7778 21.8055L25 22" stroke="#EF8354" stroke-linejoin="round"/>
<circle cx="14" cy="24" r="1" fill="#EF8354"/>
<path d="M23 23.5C23.1326 23.5056 23.2598 23.4578 23.3536 23.364C23.4473 23.2703 23.5 23.1382 23.5 23C23.5 22.8618 23.4473 22.7297 23.3536 22.636C23.2598 22.5422 23.1326 22.4944 23 22.5C22.7998 22.5083 22.607 22.5167 22.4014 22.525C18.8024 22.675 15.1985 22.825 11.5984 22.975C11.3981 22.9833 11.1945 22.9917 11 23C11.1945 23.0083 11.3981 23.0167 11.5984 23.025C15.1985 23.175 18.8024 23.325 22.4014 23.475C22.607 23.4833 22.7998 23.4917 23 23.5Z" fill="#BFF1EC"/>
<path d="M23 22.5C23.1326 22.5067 23.2598 22.4599 23.3536 22.3661C23.4473 22.2724 23.5 22.1393 23.5 22C23.5 21.8607 23.4473 21.7276 23.3536 21.6339C23.2598 21.5401 23.1326 21.4933 23 21.5C22.8332 21.5083 22.6725 21.5167 22.5012 21.525C19.502 21.675 16.4988 21.825 13.4987 21.975C13.3318 21.9833 13.1621 21.9917 13 22C13.1621 22.0083 13.3318 22.0167 13.4987 22.025C16.4988 22.175 19.502 22.325 22.5012 22.475C22.6725 22.4833 22.8332 22.4917 23 22.5Z" fill="#BFF1EC"/>
<path d="M23 21.5C23.1326 21.5084 23.2598 21.4631 23.3536 21.3692C23.4473 21.2756 23.5 21.141 23.5 21C23.5 20.859 23.4473 20.7244 23.3536 20.6308C23.2598 20.5369 23.1326 20.4916 23 20.5C22.8665 20.5083 22.738 20.5167 22.6009 20.525C20.2016 20.675 17.799 20.825 15.3989 20.975C15.2654 20.9833 15.1296 20.9917 15 21C15.1296 21.0083 15.2654 21.0167 15.3989 21.025C17.799 21.175 20.2016 21.325 22.6009 21.475C22.738 21.4833 22.8665 21.4917 23 21.5Z" fill="#BFF1EC"/>
<path d="M23 20.5C23.1326 20.5112 23.2598 20.4683 23.3536 20.3744C23.4473 20.2808 23.5 20.1438 23.5 20C23.5 19.8562 23.4473 19.7192 23.3536 19.6256C23.2598 19.5317 23.1326 19.4888 23 19.5C22.8999 19.5083 22.8035 19.5167 22.7007 19.525C20.9012 19.675 19.0993 19.825 17.2992 19.975C17.1991 19.9833 17.0972 19.9917 17 20C17.0972 20.0083 17.1991 20.0167 17.2992 20.025C19.0993 20.175 20.9012 20.325 22.7007 20.475C22.8035 20.4833 22.8999 20.4917 23 20.5Z" fill="#BFF1EC"/>
<path d="M12.4996 20.5C6.89959 11.7 4.83333 8.83333 5.5 10C5.33333 10.3333 4.9 11 4.5 11" stroke="#6CBBB4" stroke-linejoin="round"/>
</svg>
